<?xml version="1.0" standalone="no"?>
<!DOCTYPE svg PUBLIC "-//W3C//DTD SVG 20010904//EN"
 "http://www.w3.org/TR/2001/REC-SVG-20010904/DTD/svg10.dtd">
<svg version="1.0" xmlns="http://www.w3.org/2000/svg"
 width="1080.000000pt" height="1080.000000pt" viewBox="0 0 1080.000000 1080.000000"
 preserveAspectRatio="xMidYMid meet">
<metadata>
Created by potrace 1.14, written by Peter Selinger 2001-2017
</metadata>
<g transform="translate(0.000000,1080.000000) scale(0.100000,-0.100000)"
fill="#000000" stroke="none">
<path d="M0 5400 l0 -5400 5400 0 5400 0 0 5400 0 5400 -5400 0 -5400 0 0
-5400z m6826 2284 c179 -45 314 -117 436 -232 126 -119 209 -252 262 -419 139
-441 -73 -935 -490 -1139 -267 -131 -589 -131 -849 -1 -344 171 -555 533 -532
911 4 56 16 137 27 180 25 99 25 123 0 164 -53 87 -177 105 -258 37 -53 -45
-59 -74 -31 -178 21 -81 24 -113 23 -262 0 -155 -3 -178 -27 -258 -70 -228
-201 -405 -394 -534 -159 -105 -325 -155 -523 -156 -263 0 -475 84 -666 266
-124 117 -206 253 -260 432 -26 83 -28 104 -28 255 0 190 16 266 84 408 70
146 145 243 265 338 188 151 414 223 658 211 174 -9 320 -56 468 -152 87 -56
210 -176 263 -257 l38 -57 35 34 c113 110 299 112 410 5 l42 -39 44 62 c236
328 628 477 1003 381z m-5117 -4033 c193 -60 288 -267 205 -451 -55 -124 -170
-192 -324 -193 -116 0 -185 27 -261 102 -68 69 -94 133 -93 236 2 230 235 380
473 306z m2917 -15 c33 -15 71 -39 87 -53 l27 -27 -27 -29 c-16 -16 -41 -38
-56 -49 l-28 -20 -41 28 c-31 22 -55 29 -103 32 -115 7 -185 -50 -193 -159 -6
-77 2 -102 44 -149 50 -55 116 -72 197 -49 l37 10 0 89 0 90 80 0 80 0 0 -134
0 -135 -53 -25 c-208 -102 -445 -45 -534 128 -35 67 -43 191 -19 262 34 99
108 170 215 206 82 27 208 20 287 -16z m3207 14 c94 -29 157 -82 199 -167 29
-60 33 -77 33 -148 0 -101 -32 -172 -106 -239 -71 -63 -143 -89 -249 -89 -146
1 -252 59 -315 174 -23 44 -30 69 -33 135 -6 106 14 166 75 234 98 109 246
146 396 100z m-5629 -158 c38 -92 78 -187 88 -212 l20 -45 90 213 90 212 88 0
88 0 -137 -320 -136 -320 -90 0 -90 0 -115 268 c-62 147 -124 291 -137 320
l-23 52 98 0 97 0 69 -168z m999 -145 c75 -172 137 -316 137 -320 0 -4 -40 -7
-89 -7 l-89 0 -24 60 -23 60 -140 0 -140 0 -23 -60 -24 -60 -89 0 c-49 0 -89
2 -89 4 0 4 270 617 277 629 2 4 43 7 91 7 l87 0 138 -313z m485 142 l142
-172 0 172 0 171 90 0 90 0 0 -320 0 -320 -75 0 -75 0 -137 166 -138 167 -3
-167 -2 -166 -90 0 -90 0 0 320 0 320 73 0 73 0 142 -171z m1675 -142 c75
-172 137 -316 137 -320 0 -4 -40 -7 -89 -7 l-89 0 -24 60 -23 60 -140 0 -140
0 -23 -60 -24 -60 -89 0 c-49 0 -89 2 -89 4 0 4 270 617 277 629 2 4 43 7 91
7 l87 0 138 -313z m637 63 l0 -250 155 0 155 0 0 -70 0 -70 -245 0 -245 0 0
320 0 320 90 0 90 0 0 -250z m560 -70 l0 -320 -90 0 -90 0 0 320 0 320 90 0
90 0 0 -320z m552 306 c110 -26 151 -74 145 -170 -3 -52 -7 -62 -39 -92 l-36
-32 36 -24 c94 -60 102 -189 18 -260 -46 -39 -110 -48 -333 -48 l-213 0 0 320
0 320 183 0 c117 0 202 -5 239 -14z m1228 -306 l0 -320 -90 0 -90 0 0 320 0
320 90 0 90 0 0 -320z m568 291 c128 -57 177 -204 109 -326 -12 -22 -39 -51
-59 -64 l-37 -24 64 -92 c36 -51 65 -96 65 -99 0 -3 -42 -6 -92 -6 l-93 1 -58
84 -58 85 -49 0 -50 0 0 -85 0 -85 -90 0 -90 0 0 321 0 321 193 -4 c175 -4
197 -6 245 -27z m742 -41 l0 -70 -165 0 -165 0 0 -55 0 -55 145 0 145 0 0 -70
0 -70 -145 0 -146 0 3 -57 3 -58 168 -3 167 -2 0 -65 0 -65 -255 0 -255 0 0
320 0 320 250 0 250 0 0 -70z m-6036 -1000 c14 -5 26 -15 26 -21 0 -7 -7 -8
-17 -4 -65 28 -123 -1 -123 -60 0 -63 49 -93 118 -70 13 4 22 3 22 -3 0 -6
-15 -16 -34 -22 -27 -9 -41 -8 -68 3 -45 19 -63 43 -63 87 0 72 69 117 139 90z
m316 -5 c35 -18 50 -43 50 -85 0 -44 -16 -69 -55 -86 -45 -19 -90 -8 -120 28
-41 49 -26 120 30 144 40 17 60 17 95 -1z m330 2 c64 -22 80 -99 31 -148 -26
-26 -36 -29 -90 -29 l-61 0 0 95 0 95 43 -1 c23 0 58 -5 77 -12z m350 4 c0 -6
-24 -11 -52 -13 -51 -3 -53 -4 -53 -33 0 -29 2 -30 48 -33 63 -4 61 -22 -3
-22 -49 0 -50 -1 -50 -30 0 -30 1 -30 54 -30 30 0 58 -4 61 -10 4 -6 -20 -10
-64 -10 l-71 0 0 95 0 95 65 0 c36 0 65 -4 65 -9z m370 -86 c0 -57 -4 -95 -10
-95 -6 0 -10 38 -10 95 0 57 4 95 10 95 6 0 10 -38 10 -95z m300 85 c0 -5 -13
-10 -30 -10 l-30 0 0 -85 c0 -69 -3 -85 -15 -85 -12 0 -15 16 -15 85 l0 85
-30 0 c-16 0 -30 5 -30 10 0 6 32 10 75 10 43 0 75 -4 75 -10z m424 -6 c21
-20 20 -26 -4 -56 l-19 -25 23 -22 c20 -19 24 -20 29 -7 4 9 11 16 16 16 7 0
7 -8 1 -24 -5 -15 -5 -27 3 -35 6 -6 8 -14 4 -18 -4 -4 -12 -2 -18 4 -8 8 -19
6 -40 -4 -67 -33 -133 33 -80 81 16 15 17 21 7 47 -9 27 -8 33 8 45 26 18 51
18 70 -2z m490 10 c31 -12 16 -24 -22 -18 -28 4 -41 2 -51 -10 -21 -25 -6 -45
44 -57 52 -13 72 -38 55 -69 -17 -31 -55 -42 -101 -30 -21 6 -39 15 -39 20 0
13 10 13 48 -1 22 -8 36 -7 52 1 32 17 20 43 -30 61 -24 9 -50 26 -58 37 -12
19 -11 24 12 47 24 24 58 31 90 19z m316 -4 c0 -5 -22 -10 -50 -10 l-50 0 0
-35 c0 -35 0 -35 45 -35 25 0 45 -4 45 -10 0 -5 -20 -10 -45 -10 -43 0 -45 -1
-45 -30 0 -30 1 -30 55 -30 30 0 55 -4 55 -10 0 -6 -30 -10 -70 -10 l-70 0 0
95 0 95 65 0 c37 0 65 -4 65 -10z m190 -75 l0 -85 49 0 c28 0 53 -4 56 -10 4
-6 -18 -10 -59 -10 l-66 0 0 95 c0 57 4 95 10 95 6 0 10 -35 10 -85z m278 -3
l3 -82 49 0 c28 0 50 -4 50 -10 0 -6 -28 -10 -65 -10 l-65 0 0 96 c0 72 3 95
13 92 8 -3 13 -32 15 -86z m460 -10 c2 -77 0 -92 -13 -92 -12 0 -15 16 -15 96
0 72 3 95 13 92 8 -3 13 -34 15 -96z m292 88 c0 -5 -13 -10 -30 -10 l-30 0 0
-85 c0 -69 -3 -85 -15 -85 -12 0 -15 16 -15 85 l0 85 -30 0 c-16 0 -30 5 -30
10 0 6 32 10 75 10 43 0 75 -4 75 -10z"/>
<path d="M4276 7561 c-402 -88 -686 -491 -636 -903 24 -198 95 -343 240 -488
178 -178 396 -262 635 -247 217 15 376 88 535 247 106 106 162 194 205 323
144 432 -95 900 -535 1048 -84 28 -111 32 -225 35 -101 3 -150 0 -219 -15z
m470 -652 c46 -43 37 -131 -15 -159 -64 -34 -151 14 -151 82 1 93 100 139 166
77z"/>
<path d="M6450 7565 c-260 -53 -476 -221 -590 -460 -49 -102 -70 -186 -77
-307 -20 -328 152 -630 447 -782 240 -124 502 -127 744 -7 177 88 301 212 386
386 61 127 74 188 75 355 0 162 -18 247 -76 363 -74 146 -197 280 -325 355
-164 95 -399 134 -584 97z m-140 -640 c37 -19 50 -43 50 -90 0 -71 -86 -119
-151 -85 -51 28 -61 117 -16 157 39 36 73 41 117 18z"/>
<path d="M1499 3497 c-124 -84 -109 -281 26 -332 84 -33 177 1 216 78 17 32
20 54 17 107 -6 111 -67 170 -176 170 -34 0 -59 -7 -83 -23z"/>
<path d="M7632 3503 c-58 -28 -86 -76 -90 -154 -4 -60 -1 -74 22 -113 46 -78
137 -105 223 -67 131 60 132 269 2 336 -37 20 -116 19 -157 -2z"/>
<path d="M2935 3388 c-20 -51 -39 -99 -42 -105 -4 -10 16 -13 81 -13 47 0 86
2 86 3 0 6 -80 200 -84 204 -2 2 -20 -38 -41 -89z"/>
<path d="M5095 3388 c-20 -51 -39 -99 -42 -105 -4 -10 16 -13 81 -13 47 0 86
2 86 3 0 6 -80 200 -84 204 -2 2 -20 -38 -41 -89z"/>
<path d="M6860 3465 l0 -65 83 0 c107 0 132 13 132 65 0 52 -25 65 -132 65
l-83 0 0 -65z"/>
<path d="M6860 3215 l0 -65 108 0 c125 0 146 11 140 71 -4 47 -33 59 -150 59
l-98 0 0 -65z"/>
<path d="M8650 3426 l0 -96 81 0 c76 0 82 2 110 29 31 31 36 64 18 104 -17 37
-48 50 -131 55 l-78 5 0 -97z"/>
<path d="M3843 2568 c-52 -25 -47 -109 8 -135 76 -36 144 63 84 122 -26 26
-56 31 -92 13z"/>
<path d="M4167 2573 c-4 -3 -7 -37 -7 -75 l0 -68 49 0 c42 0 53 4 70 26 24 31
26 43 10 78 -16 34 -100 61 -122 39z"/>
<path d="M5643 2564 c-3 -8 1 -22 9 -30 13 -13 17 -12 32 5 10 11 15 25 11 30
-10 17 -45 13 -52 -5z"/>
<path d="M5636 2485 c-21 -22 -20 -42 3 -55 25 -13 33 -13 55 3 16 11 15 14
-12 40 -27 26 -31 27 -46 12z"/>
</g>
</svg>
